<mxfile host="65bd71144e">
    <diagram id="xDF0Iu8GdKgvdwVen-lP" name="Page-1">
        <mxGraphModel dx="844" dy="1454" grid="1" gridSize="10" guides="0" tooltips="1" connect="0" arrows="1" fold="1" page="1" pageScale="1" pageWidth="850" pageHeight="1100" math="0" shadow="0">
            <root>
                <mxCell id="0"/>
                <mxCell id="1" parent="0"/>
                <mxCell id="165" style="edgeStyle=elbowEdgeStyle;sketch=1;elbow=vertical;html=1;fontFamily=Times New Roman;fontSize=14;fontColor=#FFFFFF;exitX=-0.032;exitY=0.513;exitDx=0;exitDy=0;exitPerimeter=0;entryX=0.461;entryY=-0.044;entryDx=0;entryDy=0;entryPerimeter=0;" parent="1" source="157" target="136" edge="1">
                    <mxGeometry relative="1" as="geometry">
                        <mxPoint x="2019" y="120" as="targetPoint"/>
                        <Array as="points">
                            <mxPoint x="2069" y="110"/>
                            <mxPoint x="2029" y="50"/>
                        </Array>
                    </mxGeometry>
                </mxCell>
                <mxCell id="166" style="edgeStyle=elbowEdgeStyle;sketch=1;elbow=vertical;html=1;entryX=0.457;entryY=0.004;entryDx=0;entryDy=0;entryPerimeter=0;fontFamily=Times New Roman;fontSize=14;fontColor=#FFFFFF;" parent="1" source="157" target="127" edge="1">
                    <mxGeometry relative="1" as="geometry">
                        <Array as="points">
                            <mxPoint x="2099" y="10"/>
                        </Array>
                    </mxGeometry>
                </mxCell>
                <mxCell id="171" value="inheritance" style="edgeLabel;html=1;align=center;verticalAlign=middle;resizable=0;points=[];fontSize=14;fontFamily=Times New Roman;fontColor=#FFFFFF;" parent="166" vertex="1" connectable="0">
                    <mxGeometry x="-0.3173" y="1" relative="1" as="geometry">
                        <mxPoint x="-6" y="31" as="offset"/>
                    </mxGeometry>
                </mxCell>
                <mxCell id="157" value="" style="shape=curlyBracket;whiteSpace=wrap;html=1;rounded=1;flipH=1;labelPosition=right;verticalLabelPosition=middle;align=left;verticalAlign=middle;shadow=1;labelBackgroundColor=none;labelBorderColor=none;strokeColor=default;strokeWidth=1;fontFamily=Times New Roman;fontSize=14;fontColor=#FFFFFF;fillColor=#2E732E;size=0.5;" parent="1" vertex="1">
                    <mxGeometry x="1909" y="-20" width="20" height="60" as="geometry"/>
                </mxCell>
                <mxCell id="22" value="" style="shape=table;startSize=0;container=1;collapsible=0;childLayout=tableLayout;labelBackgroundColor=none;labelBorderColor=none;fontFamily=Times New Roman;fontColor=#f3f2f2;rounded=0;strokeColor=default;fillColor=default;" parent="1" vertex="1">
                    <mxGeometry x="510" y="-90" width="220" height="380" as="geometry"/>
                </mxCell>
                <mxCell id="23" value="" style="shape=tableRow;horizontal=0;startSize=0;swimlaneHead=0;swimlaneBody=0;top=0;left=0;bottom=0;right=0;collapsible=0;dropTarget=0;fillColor=none;points=[[0,0.5],[1,0.5]];portConstraint=eastwest;labelBackgroundColor=#752dcd;labelBorderColor=#da3e3e;fontFamily=Times New Roman;fontColor=#ec3c3c;rounded=0;" parent="22" vertex="1">
                    <mxGeometry width="220" height="53" as="geometry"/>
                </mxCell>
                <mxCell id="24" value="Buku" style="shape=partialRectangle;whiteSpace=wrap;connectable=0;overflow=hidden;fillColor=#7425d4;top=0;left=0;bottom=0;right=0;pointerEvents=1;labelBackgroundColor=none;labelBorderColor=none;fontFamily=Times New Roman;fontColor=default;align=center;strokeColor=none;rounded=0;verticalAlign=middle;fontSize=19;fontStyle=1" parent="23" vertex="1">
                    <mxGeometry width="220" height="53" as="geometry">
                        <mxRectangle width="220" height="53" as="alternateBounds"/>
                    </mxGeometry>
                </mxCell>
                <mxCell id="25" value="" style="shape=tableRow;horizontal=0;startSize=0;swimlaneHead=0;swimlaneBody=0;top=0;left=0;bottom=0;right=0;collapsible=0;dropTarget=0;fillColor=none;points=[[0,0.5],[1,0.5]];portConstraint=eastwest;labelBackgroundColor=#752dcd;labelBorderColor=#da3e3e;fontFamily=Times New Roman;fontColor=#ec3c3c;swimlaneLine=0;rounded=0;" parent="22" vertex="1">
                    <mxGeometry y="53" width="220" height="37" as="geometry"/>
                </mxCell>
                <mxCell id="26" value="-__judul = str" style="shape=partialRectangle;whiteSpace=wrap;connectable=0;overflow=hidden;fillColor=none;top=0;left=0;bottom=0;right=0;pointerEvents=1;labelBackgroundColor=none;labelBorderColor=none;fontFamily=Times New Roman;fontColor=#FFFFFF;rounded=0;" parent="25" vertex="1">
                    <mxGeometry width="220" height="37" as="geometry">
                        <mxRectangle width="220" height="37" as="alternateBounds"/>
                    </mxGeometry>
                </mxCell>
                <mxCell id="27" value="" style="shape=tableRow;horizontal=0;startSize=0;swimlaneHead=0;swimlaneBody=0;top=0;left=0;bottom=0;right=0;collapsible=0;dropTarget=0;fillColor=none;points=[[0,0.5],[1,0.5]];portConstraint=eastwest;labelBackgroundColor=#752dcd;labelBorderColor=#da3e3e;fontFamily=Times New Roman;fontColor=#ec3c3c;rounded=0;" parent="22" vertex="1">
                    <mxGeometry y="90" width="220" height="37" as="geometry"/>
                </mxCell>
                <mxCell id="28" value="-__penulis =str" style="shape=partialRectangle;html=1;whiteSpace=wrap;connectable=0;overflow=hidden;fillColor=default;top=0;left=0;bottom=0;right=0;pointerEvents=1;labelBackgroundColor=none;labelBorderColor=none;fontFamily=Times New Roman;fontColor=default;rounded=0;" parent="27" vertex="1">
                    <mxGeometry width="220" height="37" as="geometry">
                        <mxRectangle width="220" height="37" as="alternateBounds"/>
                    </mxGeometry>
                </mxCell>
                <mxCell id="29" value="" style="shape=tableRow;horizontal=0;startSize=0;swimlaneHead=0;swimlaneBody=0;top=0;left=0;bottom=0;right=0;collapsible=0;dropTarget=0;fillColor=none;points=[[0,0.5],[1,0.5]];portConstraint=eastwest;labelBackgroundColor=#752dcd;labelBorderColor=#da3e3e;fontFamily=Times New Roman;fontColor=#ec3c3c;rounded=0;" parent="22" vertex="1">
                    <mxGeometry y="127" width="220" height="35" as="geometry"/>
                </mxCell>
                <mxCell id="30" value="-__jumlah = int" style="shape=partialRectangle;html=1;whiteSpace=wrap;connectable=0;overflow=hidden;fillColor=none;top=0;left=0;bottom=0;right=0;pointerEvents=1;labelBackgroundColor=none;labelBorderColor=none;fontFamily=Times New Roman;fontColor=default;rounded=0;" parent="29" vertex="1">
                    <mxGeometry width="220" height="35" as="geometry">
                        <mxRectangle width="220" height="35" as="alternateBounds"/>
                    </mxGeometry>
                </mxCell>
                <mxCell id="31" value="" style="shape=tableRow;horizontal=0;startSize=0;swimlaneHead=0;swimlaneBody=0;top=0;left=0;bottom=0;right=0;collapsible=0;dropTarget=0;fillColor=none;points=[[0,0.5],[1,0.5]];portConstraint=eastwest;labelBackgroundColor=#752dcd;labelBorderColor=#da3e3e;fontFamily=Times New Roman;fontColor=#ec3c3c;rounded=0;" parent="22" vertex="1">
                    <mxGeometry y="162" width="220" height="37" as="geometry"/>
                </mxCell>
                <mxCell id="32" value="-__dipinjam = int" style="shape=partialRectangle;html=1;whiteSpace=wrap;connectable=0;overflow=hidden;fillColor=none;top=0;left=0;bottom=0;right=0;pointerEvents=1;labelBackgroundColor=none;labelBorderColor=none;fontFamily=Times New Roman;fontColor=#f4ecec;rounded=0;" parent="31" vertex="1">
                    <mxGeometry width="220" height="37" as="geometry">
                        <mxRectangle width="220" height="37" as="alternateBounds"/>
                    </mxGeometry>
                </mxCell>
                <mxCell id="33" value="" style="shape=tableRow;horizontal=0;startSize=0;swimlaneHead=0;swimlaneBody=0;top=0;left=0;bottom=0;right=0;collapsible=0;dropTarget=0;fillColor=none;points=[[0,0.5],[1,0.5]];portConstraint=eastwest;labelBackgroundColor=#752dcd;labelBorderColor=#da3e3e;fontFamily=Times New Roman;fontColor=#ec3c3c;rounded=0;" parent="22" vertex="1">
                    <mxGeometry y="199" width="220" height="35" as="geometry"/>
                </mxCell>
                <mxCell id="34" value="+ pinjaaman ()" style="shape=partialRectangle;html=1;whiteSpace=wrap;connectable=0;overflow=hidden;fillColor=none;top=0;left=0;bottom=0;right=0;pointerEvents=1;labelBackgroundColor=none;labelBorderColor=none;fontFamily=Times New Roman;fontColor=#ECD0D8;rounded=0;" parent="33" vertex="1">
                    <mxGeometry width="220" height="35" as="geometry">
                        <mxRectangle width="220" height="35" as="alternateBounds"/>
                    </mxGeometry>
                </mxCell>
                <mxCell id="35" value="" style="shape=tableRow;horizontal=0;startSize=0;swimlaneHead=0;swimlaneBody=0;top=0;left=0;bottom=0;right=0;collapsible=0;dropTarget=0;fillColor=none;points=[[0,0.5],[1,0.5]];portConstraint=eastwest;labelBackgroundColor=#752dcd;labelBorderColor=#da3e3e;fontFamily=Times New Roman;fontColor=#ec3c3c;rounded=0;" parent="22" vertex="1">
                    <mxGeometry y="234" width="220" height="37" as="geometry"/>
                </mxCell>
                <mxCell id="36" value="&lt;font color=&quot;#ffffff&quot;&gt;+ kembalikan ()&lt;/font&gt;" style="shape=partialRectangle;html=1;connectable=0;overflow=hidden;fillColor=#2E732E;top=0;left=0;bottom=0;right=0;pointerEvents=1;labelBackgroundColor=none;labelBorderColor=none;fontFamily=Times New Roman;fontColor=#f5f5f5;rounded=0;whiteSpace=wrap;" parent="35" vertex="1">
                    <mxGeometry width="220" height="37" as="geometry">
                        <mxRectangle width="220" height="37" as="alternateBounds"/>
                    </mxGeometry>
                </mxCell>
                <mxCell id="37" value="" style="shape=tableRow;horizontal=0;startSize=0;swimlaneHead=0;swimlaneBody=0;top=0;left=0;bottom=0;right=0;collapsible=0;dropTarget=0;fillColor=none;points=[[0,0.5],[1,0.5]];portConstraint=eastwest;labelBackgroundColor=#752dcd;labelBorderColor=#da3e3e;fontFamily=Times New Roman;fontColor=#ec3c3c;rounded=0;" parent="22" vertex="1">
                    <mxGeometry y="271" width="220" height="37" as="geometry"/>
                </mxCell>
                <mxCell id="38" value="+ get_info_buku ()" style="shape=partialRectangle;html=1;whiteSpace=wrap;connectable=0;overflow=hidden;fillColor=#2E732E;top=0;left=0;bottom=0;right=0;pointerEvents=1;labelBackgroundColor=none;labelBorderColor=none;fontFamily=Times New Roman;fontColor=#ffffff;rounded=0;" parent="37" vertex="1">
                    <mxGeometry width="220" height="37" as="geometry">
                        <mxRectangle width="220" height="37" as="alternateBounds"/>
                    </mxGeometry>
                </mxCell>
                <mxCell id="41" value="" style="shape=tableRow;horizontal=0;startSize=0;swimlaneHead=0;swimlaneBody=0;top=0;left=0;bottom=0;right=0;collapsible=0;dropTarget=0;fillColor=none;points=[[0,0.5],[1,0.5]];portConstraint=eastwest;labelBackgroundColor=#752dcd;labelBorderColor=#da3e3e;fontFamily=Times New Roman;fontColor=#ec3c3c;rounded=0;" parent="22" vertex="1">
                    <mxGeometry y="308" width="220" height="37" as="geometry"/>
                </mxCell>
                <mxCell id="42" value="+ get_info_buku ()" style="shape=partialRectangle;html=1;whiteSpace=wrap;connectable=0;overflow=hidden;fillColor=#2E732E;top=0;left=0;bottom=0;right=0;pointerEvents=1;labelBackgroundColor=none;labelBorderColor=none;fontFamily=Times New Roman;fontColor=#ffffff;rounded=0;" parent="41" vertex="1">
                    <mxGeometry width="220" height="37" as="geometry">
                        <mxRectangle width="220" height="37" as="alternateBounds"/>
                    </mxGeometry>
                </mxCell>
                <mxCell id="39" value="" style="shape=tableRow;horizontal=0;startSize=0;swimlaneHead=0;swimlaneBody=0;top=0;left=0;bottom=0;right=0;collapsible=0;dropTarget=0;fillColor=#2E732E;points=[[0,0.5],[1,0.5]];portConstraint=eastwest;labelBackgroundColor=#752dcd;labelBorderColor=#da3e3e;fontFamily=Times New Roman;fontColor=#ec3c3c;rounded=0;" parent="22" vertex="1">
                    <mxGeometry y="345" width="220" height="35" as="geometry"/>
                </mxCell>
                <mxCell id="40" value="+ getter/setter" style="shape=partialRectangle;html=1;whiteSpace=wrap;connectable=0;overflow=hidden;fillColor=#2E732E;top=0;left=0;bottom=0;right=0;pointerEvents=1;labelBackgroundColor=none;labelBorderColor=none;fontFamily=Times New Roman;fontColor=#f3ecec;rounded=0;" parent="39" vertex="1">
                    <mxGeometry width="220" height="35" as="geometry">
                        <mxRectangle width="220" height="35" as="alternateBounds"/>
                    </mxGeometry>
                </mxCell>
                <mxCell id="49" value="" style="shape=table;startSize=0;container=1;collapsible=0;childLayout=tableLayout;labelBackgroundColor=none;labelBorderColor=none;strokeColor=default;fontFamily=Times New Roman;fontSize=19;fontColor=#FFFFFF;fillColor=#18141D;html=0;" parent="1" vertex="1">
                    <mxGeometry x="930" y="-80" width="190" height="271" as="geometry"/>
                </mxCell>
                <mxCell id="50" value="" style="shape=tableRow;horizontal=0;startSize=0;swimlaneHead=0;swimlaneBody=0;top=0;left=0;bottom=0;right=0;collapsible=0;dropTarget=0;fillColor=none;points=[[0,0.5],[1,0.5]];portConstraint=eastwest;labelBackgroundColor=none;labelBorderColor=none;strokeColor=default;fontFamily=Times New Roman;fontSize=19;fontColor=#FFFFFF;html=0;" parent="49" vertex="1">
                    <mxGeometry width="190" height="34" as="geometry"/>
                </mxCell>
                <mxCell id="51" value="&lt;font style=&quot;font-size: 14px;&quot;&gt;PERSEWAAN&lt;/font&gt;" style="shape=partialRectangle;html=1;whiteSpace=wrap;connectable=0;overflow=hidden;fillColor=#660066;top=0;left=0;bottom=0;right=0;pointerEvents=1;labelBackgroundColor=none;labelBorderColor=none;strokeColor=default;fontFamily=Times New Roman;fontSize=19;fontColor=#FFFFFF;" parent="50" vertex="1">
                    <mxGeometry width="190" height="34" as="geometry">
                        <mxRectangle width="190" height="34" as="alternateBounds"/>
                    </mxGeometry>
                </mxCell>
                <mxCell id="52" value="" style="shape=tableRow;horizontal=0;startSize=0;swimlaneHead=0;swimlaneBody=0;top=0;left=0;bottom=0;right=0;collapsible=0;dropTarget=0;fillColor=none;points=[[0,0.5],[1,0.5]];portConstraint=eastwest;labelBackgroundColor=none;labelBorderColor=none;strokeColor=default;fontFamily=Times New Roman;fontSize=19;fontColor=#FFFFFF;html=0;" parent="49" vertex="1">
                    <mxGeometry y="34" width="190" height="34" as="geometry"/>
                </mxCell>
                <mxCell id="53" value="-__nama: str" style="shape=partialRectangle;html=1;whiteSpace=wrap;connectable=0;overflow=hidden;fillColor=none;top=0;left=0;bottom=0;right=0;pointerEvents=1;labelBackgroundColor=none;labelBorderColor=none;strokeColor=default;fontFamily=Times New Roman;fontSize=19;fontColor=#FFFFFF;" parent="52" vertex="1">
                    <mxGeometry width="190" height="34" as="geometry">
                        <mxRectangle width="190" height="34" as="alternateBounds"/>
                    </mxGeometry>
                </mxCell>
                <mxCell id="54" value="" style="shape=tableRow;horizontal=0;startSize=0;swimlaneHead=0;swimlaneBody=0;top=0;left=0;bottom=0;right=0;collapsible=0;dropTarget=0;fillColor=none;points=[[0,0.5],[1,0.5]];portConstraint=eastwest;labelBackgroundColor=none;labelBorderColor=none;strokeColor=default;fontFamily=Times New Roman;fontSize=19;fontColor=#FFFFFF;html=0;" parent="49" vertex="1">
                    <mxGeometry y="68" width="190" height="33" as="geometry"/>
                </mxCell>
                <mxCell id="55" value="-__alamat: str" style="shape=partialRectangle;html=1;whiteSpace=wrap;connectable=0;overflow=hidden;fillColor=none;top=0;left=0;bottom=0;right=0;pointerEvents=1;labelBackgroundColor=none;labelBorderColor=none;strokeColor=default;fontFamily=Times New Roman;fontSize=19;fontColor=#FFFFFF;" parent="54" vertex="1">
                    <mxGeometry width="190" height="33" as="geometry">
                        <mxRectangle width="190" height="33" as="alternateBounds"/>
                    </mxGeometry>
                </mxCell>
                <mxCell id="56" value="" style="shape=tableRow;horizontal=0;startSize=0;swimlaneHead=0;swimlaneBody=0;top=0;left=0;bottom=0;right=0;collapsible=0;dropTarget=0;fillColor=none;points=[[0,0.5],[1,0.5]];portConstraint=eastwest;labelBackgroundColor=none;labelBorderColor=none;strokeColor=default;fontFamily=Times New Roman;fontSize=19;fontColor=#FFFFFF;html=0;" parent="49" vertex="1">
                    <mxGeometry y="101" width="190" height="34" as="geometry"/>
                </mxCell>
                <mxCell id="57" value="-__no_telp: str" style="shape=partialRectangle;html=1;whiteSpace=wrap;connectable=0;overflow=hidden;fillColor=none;top=0;left=0;bottom=0;right=0;pointerEvents=1;labelBackgroundColor=none;labelBorderColor=none;strokeColor=default;fontFamily=Times New Roman;fontSize=19;fontColor=#FFFFFF;" parent="56" vertex="1">
                    <mxGeometry width="190" height="34" as="geometry">
                        <mxRectangle width="190" height="34" as="alternateBounds"/>
                    </mxGeometry>
                </mxCell>
                <mxCell id="58" value="" style="shape=tableRow;horizontal=0;startSize=0;swimlaneHead=0;swimlaneBody=0;top=0;left=0;bottom=0;right=0;collapsible=0;dropTarget=0;fillColor=none;points=[[0,0.5],[1,0.5]];portConstraint=eastwest;labelBackgroundColor=none;labelBorderColor=none;strokeColor=default;fontFamily=Times New Roman;fontSize=19;fontColor=#FFFFFF;html=0;strokeWidth=12;" parent="49" vertex="1">
                    <mxGeometry y="135" width="190" height="35" as="geometry"/>
                </mxCell>
                <mxCell id="59" value="+ nama() : str" style="shape=partialRectangle;html=1;whiteSpace=wrap;connectable=0;overflow=hidden;fillColor=#2E732E;top=0;left=0;bottom=0;right=0;pointerEvents=1;labelBackgroundColor=none;labelBorderColor=none;strokeColor=default;fontFamily=Times New Roman;fontSize=19;fontColor=#FFFFFF;strokeWidth=4;" parent="58" vertex="1">
                    <mxGeometry width="190" height="35" as="geometry">
                        <mxRectangle width="190" height="35" as="alternateBounds"/>
                    </mxGeometry>
                </mxCell>
                <mxCell id="60" value="" style="shape=tableRow;horizontal=0;startSize=0;swimlaneHead=0;swimlaneBody=0;top=0;left=0;bottom=0;right=0;collapsible=0;dropTarget=0;fillColor=none;points=[[0,0.5],[1,0.5]];portConstraint=eastwest;labelBackgroundColor=none;labelBorderColor=none;strokeColor=default;fontFamily=Times New Roman;fontSize=19;fontColor=#FFFFFF;html=0;" parent="49" vertex="1">
                    <mxGeometry y="170" width="190" height="34" as="geometry"/>
                </mxCell>
                <mxCell id="61" value="+ alamat () : str" style="shape=partialRectangle;html=1;whiteSpace=wrap;connectable=0;overflow=hidden;fillColor=#2E732E;top=0;left=0;bottom=0;right=0;pointerEvents=1;labelBackgroundColor=none;labelBorderColor=none;strokeColor=default;fontFamily=Times New Roman;fontSize=19;fontColor=#FFFFFF;shadow=1;" parent="60" vertex="1">
                    <mxGeometry width="190" height="34" as="geometry">
                        <mxRectangle width="190" height="34" as="alternateBounds"/>
                    </mxGeometry>
                </mxCell>
                <mxCell id="62" value="" style="shape=tableRow;horizontal=0;startSize=0;swimlaneHead=0;swimlaneBody=0;top=0;left=0;bottom=0;right=0;collapsible=0;dropTarget=0;fillColor=none;points=[[0,0.5],[1,0.5]];portConstraint=eastwest;labelBackgroundColor=none;labelBorderColor=none;strokeColor=default;fontFamily=Times New Roman;fontSize=19;fontColor=#FFFFFF;html=0;" parent="49" vertex="1">
                    <mxGeometry y="204" width="190" height="33" as="geometry"/>
                </mxCell>
                <mxCell id="63" value="+ no_telp () : str" style="shape=partialRectangle;html=1;whiteSpace=wrap;connectable=0;overflow=hidden;fillColor=#2E732E;top=0;left=0;bottom=0;right=0;pointerEvents=1;labelBackgroundColor=none;labelBorderColor=none;strokeColor=default;fontFamily=Times New Roman;fontSize=19;fontColor=#FFFFFF;" parent="62" vertex="1">
                    <mxGeometry width="190" height="33" as="geometry">
                        <mxRectangle width="190" height="33" as="alternateBounds"/>
                    </mxGeometry>
                </mxCell>
                <mxCell id="64" value="" style="shape=tableRow;horizontal=0;startSize=0;swimlaneHead=0;swimlaneBody=0;top=0;left=0;bottom=0;right=0;collapsible=0;dropTarget=0;fillColor=none;points=[[0,0.5],[1,0.5]];portConstraint=eastwest;labelBackgroundColor=none;labelBorderColor=none;strokeColor=default;fontFamily=Times New Roman;fontSize=19;fontColor=#FFFFFF;html=0;" parent="49" vertex="1">
                    <mxGeometry y="237" width="190" height="34" as="geometry"/>
                </mxCell>
                <mxCell id="65" value="+ info () :&amp;nbsp;" style="shape=partialRectangle;html=1;whiteSpace=wrap;connectable=0;overflow=hidden;fillColor=#2E732E;top=0;left=0;bottom=0;right=0;pointerEvents=1;labelBackgroundColor=none;labelBorderColor=none;strokeColor=default;fontFamily=Times New Roman;fontSize=19;fontColor=#FFFFFF;" parent="64" vertex="1">
                    <mxGeometry width="190" height="34" as="geometry">
                        <mxRectangle width="190" height="34" as="alternateBounds"/>
                    </mxGeometry>
                </mxCell>
                <mxCell id="76" value="" style="shape=singleArrow;whiteSpace=wrap;html=1;arrowWidth=0.4;arrowSize=0.4;fontSize=14;fontFamily=Times New Roman;fillColor=#660066;fontColor=#FFFFFF;startSize=0;labelBackgroundColor=none;labelBorderColor=none;" parent="64" vertex="1">
                    <mxGeometry x="190" height="34" as="geometry">
                        <mxRectangle width="NaN" height="34" as="alternateBounds"/>
                    </mxGeometry>
                </mxCell>
                <mxCell id="82" value="" style="whiteSpace=wrap;html=1;fontSize=14;fontFamily=Times New Roman;fillColor=#660066;fontColor=#FFFFFF;startSize=0;labelBackgroundColor=none;labelBorderColor=none;" parent="64" vertex="1">
                    <mxGeometry height="34" as="geometry">
                        <mxRectangle width="NaN" height="34" as="alternateBounds"/>
                    </mxGeometry>
                </mxCell>
                <mxCell id="84" value="" style="whiteSpace=wrap;html=1;fontSize=14;fontFamily=Times New Roman;fillColor=#660066;fontColor=#FFFFFF;startSize=0;labelBackgroundColor=none;labelBorderColor=none;" parent="64" vertex="1">
                    <mxGeometry height="34" as="geometry">
                        <mxRectangle width="NaN" height="34" as="alternateBounds"/>
                    </mxGeometry>
                </mxCell>
                <mxCell id="77" value="" style="edgeStyle=elbowEdgeStyle;elbow=vertical;html=1;fontFamily=Times New Roman;fontSize=14;fontColor=#FFFFFF;" parent="1" source="66" target="76" edge="1">
                    <mxGeometry relative="1" as="geometry"/>
                </mxCell>
                <mxCell id="89" style="edgeStyle=elbowEdgeStyle;sketch=1;elbow=vertical;html=1;entryX=0.389;entryY=1.023;entryDx=0;entryDy=0;entryPerimeter=0;fontFamily=Times New Roman;fontSize=14;fontColor=#FFFFFF;" parent="1" source="66" target="64" edge="1">
                    <mxGeometry relative="1" as="geometry">
                        <Array as="points">
                            <mxPoint x="1109" y="280"/>
                        </Array>
                    </mxGeometry>
                </mxCell>
                <mxCell id="66" value="" style="shape=table;startSize=0;container=1;collapsible=0;childLayout=tableLayout;labelBackgroundColor=none;labelBorderColor=default;strokeColor=default;fontFamily=Times New Roman;fontSize=14;fontColor=#FFFFFF;fillColor=#660066;html=0;whiteSpace=wrap;" parent="1" vertex="1">
                    <mxGeometry x="1349" y="70" width="110" height="161" as="geometry"/>
                </mxCell>
                <mxCell id="67" value="" style="shape=tableRow;horizontal=0;startSize=0;swimlaneHead=0;swimlaneBody=0;top=0;left=0;bottom=0;right=0;collapsible=0;dropTarget=0;fillColor=none;points=[[0,0.5],[1,0.5]];portConstraint=eastwest;labelBackgroundColor=none;labelBorderColor=none;strokeColor=default;fontFamily=Times New Roman;fontSize=14;fontColor=#FFFFFF;html=0;" parent="66" vertex="1">
                    <mxGeometry width="110" height="45" as="geometry"/>
                </mxCell>
                <mxCell id="68" value="Barang" style="shape=partialRectangle;html=1;whiteSpace=wrap;connectable=0;overflow=hidden;fillColor=none;top=0;left=0;bottom=0;right=0;pointerEvents=1;labelBackgroundColor=none;labelBorderColor=none;strokeColor=default;fontFamily=Times New Roman;fontSize=14;fontColor=#FFFFFF;" parent="67" vertex="1">
                    <mxGeometry width="110" height="45" as="geometry">
                        <mxRectangle width="110" height="45" as="alternateBounds"/>
                    </mxGeometry>
                </mxCell>
                <mxCell id="69" value="" style="shape=tableRow;horizontal=0;startSize=0;swimlaneHead=0;swimlaneBody=0;top=0;left=0;bottom=0;right=0;collapsible=0;dropTarget=0;fillColor=none;points=[[0,0.5],[1,0.5]];portConstraint=eastwest;labelBackgroundColor=none;labelBorderColor=none;strokeColor=default;fontFamily=Times New Roman;fontSize=14;fontColor=#FFFFFF;html=0;" parent="66" vertex="1">
                    <mxGeometry y="45" width="110" height="25" as="geometry"/>
                </mxCell>
                <mxCell id="70" value="- __ukuran : int" style="shape=partialRectangle;html=1;whiteSpace=wrap;connectable=0;overflow=hidden;fillColor=default;top=0;left=0;bottom=0;right=0;pointerEvents=1;labelBackgroundColor=none;labelBorderColor=none;strokeColor=default;fontFamily=Times New Roman;fontSize=14;fontColor=#FFFFFF;" parent="69" vertex="1">
                    <mxGeometry width="110" height="25" as="geometry">
                        <mxRectangle width="110" height="25" as="alternateBounds"/>
                    </mxGeometry>
                </mxCell>
                <mxCell id="71" value="" style="shape=tableRow;horizontal=0;startSize=0;swimlaneHead=0;swimlaneBody=0;top=0;left=0;bottom=0;right=0;collapsible=0;dropTarget=0;fillColor=none;points=[[0,0.5],[1,0.5]];portConstraint=eastwest;labelBackgroundColor=none;labelBorderColor=none;strokeColor=default;fontFamily=Times New Roman;fontSize=14;fontColor=#FFFFFF;html=0;" parent="66" vertex="1">
                    <mxGeometry y="70" width="110" height="46" as="geometry"/>
                </mxCell>
                <mxCell id="72" value="+ ukuran () : int" style="shape=partialRectangle;html=1;whiteSpace=wrap;connectable=0;overflow=hidden;fillColor=#2E732E;top=0;left=0;bottom=0;right=0;pointerEvents=1;labelBackgroundColor=none;labelBorderColor=none;strokeColor=none;fontFamily=Times New Roman;fontSize=14;fontColor=#FFFFFF;" parent="71" vertex="1">
                    <mxGeometry width="110" height="46" as="geometry">
                        <mxRectangle width="110" height="46" as="alternateBounds"/>
                    </mxGeometry>
                </mxCell>
                <mxCell id="73" value="" style="shape=tableRow;horizontal=0;startSize=0;swimlaneHead=0;swimlaneBody=0;top=0;left=0;bottom=0;right=0;collapsible=0;dropTarget=0;fillColor=none;points=[[0,0.5],[1,0.5]];portConstraint=eastwest;labelBackgroundColor=none;labelBorderColor=none;strokeColor=default;fontFamily=Times New Roman;fontSize=14;fontColor=#FFFFFF;html=0;" parent="66" vertex="1">
                    <mxGeometry y="116" width="110" height="45" as="geometry"/>
                </mxCell>
                <mxCell id="74" value="+ info ()&amp;nbsp;" style="shape=partialRectangle;html=1;whiteSpace=wrap;connectable=0;overflow=hidden;fillColor=#2E732E;top=0;left=0;bottom=0;right=0;pointerEvents=1;labelBackgroundColor=none;labelBorderColor=none;strokeColor=default;fontFamily=Times New Roman;fontSize=14;fontColor=#FFFFFF;" parent="73" vertex="1">
                    <mxGeometry width="110" height="45" as="geometry">
                        <mxRectangle width="110" height="45" as="alternateBounds"/>
                    </mxGeometry>
                </mxCell>
                <mxCell id="96" style="edgeStyle=elbowEdgeStyle;sketch=1;elbow=vertical;html=1;fontFamily=Times New Roman;fontSize=14;fontColor=#FFFFFF;" parent="1" source="95" target="67" edge="1">
                    <mxGeometry relative="1" as="geometry"/>
                </mxCell>
                <mxCell id="176" value="INHERITANCE" style="edgeLabel;html=1;align=center;verticalAlign=middle;resizable=0;points=[];fontSize=14;fontFamily=Times New Roman;fontColor=#FFFFFF;" parent="96" vertex="1" connectable="0">
                    <mxGeometry x="-0.1277" relative="1" as="geometry">
                        <mxPoint x="-61" y="40" as="offset"/>
                    </mxGeometry>
                </mxCell>
                <mxCell id="95" value="__init__()" style="whiteSpace=wrap;html=1;labelBackgroundColor=none;labelBorderColor=none;strokeColor=default;fontFamily=Times New Roman;fontSize=14;fontColor=#FFFFFF;fillColor=#2E732E;" parent="1" vertex="1">
                    <mxGeometry x="1139" y="-20" width="100" height="50" as="geometry"/>
                </mxCell>
                <mxCell id="98" style="edgeStyle=elbowEdgeStyle;sketch=1;elbow=vertical;html=1;fontFamily=Times New Roman;fontSize=14;fontColor=#FFFFFF;" parent="1" source="54" target="95" edge="1">
                    <mxGeometry relative="1" as="geometry"/>
                </mxCell>
                <mxCell id="117" value="" style="shape=table;startSize=0;container=1;collapsible=0;childLayout=tableLayout;labelBackgroundColor=none;labelBorderColor=none;strokeColor=default;fontFamily=Times New Roman;fontSize=14;fontColor=#FFFFFF;fillColor=#660066;html=0;" parent="1" vertex="1">
                    <mxGeometry x="1790" y="-90" width="120" height="180" as="geometry"/>
                </mxCell>
                <mxCell id="118" value="" style="shape=tableRow;horizontal=0;startSize=0;swimlaneHead=0;swimlaneBody=0;top=0;left=0;bottom=0;right=0;collapsible=0;dropTarget=0;fillColor=none;points=[[0,0.5],[1,0.5]];portConstraint=eastwest;labelBackgroundColor=none;labelBorderColor=none;strokeColor=default;fontFamily=Times New Roman;fontSize=14;fontColor=#FFFFFF;html=0;" parent="117" vertex="1">
                    <mxGeometry width="120" height="46" as="geometry"/>
                </mxCell>
                <mxCell id="119" value="TopUp" style="shape=partialRectangle;html=1;whiteSpace=wrap;connectable=0;overflow=hidden;fillColor=none;top=0;left=0;bottom=0;right=0;pointerEvents=1;labelBackgroundColor=none;labelBorderColor=none;strokeColor=default;fontFamily=Times New Roman;fontSize=14;fontColor=#FFFFFF;" parent="118" vertex="1">
                    <mxGeometry width="120" height="46" as="geometry">
                        <mxRectangle width="120" height="46" as="alternateBounds"/>
                    </mxGeometry>
                </mxCell>
                <mxCell id="120" value="" style="shape=tableRow;horizontal=0;startSize=0;swimlaneHead=0;swimlaneBody=0;top=0;left=0;bottom=0;right=0;collapsible=0;dropTarget=0;fillColor=none;points=[[0,0.5],[1,0.5]];portConstraint=eastwest;labelBackgroundColor=none;labelBorderColor=none;strokeColor=default;fontFamily=Times New Roman;fontSize=14;fontColor=#FFFFFF;html=0;" parent="117" vertex="1">
                    <mxGeometry y="46" width="120" height="47" as="geometry"/>
                </mxCell>
                <mxCell id="121" value="- kategori" style="shape=partialRectangle;html=1;whiteSpace=wrap;connectable=0;overflow=hidden;fillColor=#000000;top=0;left=0;bottom=0;right=0;pointerEvents=1;labelBackgroundColor=none;labelBorderColor=none;strokeColor=default;fontFamily=Times New Roman;fontSize=14;fontColor=#FFFFFF;" parent="120" vertex="1">
                    <mxGeometry width="120" height="47" as="geometry">
                        <mxRectangle width="120" height="47" as="alternateBounds"/>
                    </mxGeometry>
                </mxCell>
                <mxCell id="122" value="" style="shape=tableRow;horizontal=0;startSize=0;swimlaneHead=0;swimlaneBody=0;top=0;left=0;bottom=0;right=0;collapsible=0;dropTarget=0;fillColor=none;points=[[0,0.5],[1,0.5]];portConstraint=eastwest;labelBackgroundColor=none;labelBorderColor=none;strokeColor=default;fontFamily=Times New Roman;fontSize=14;fontColor=#FFFFFF;html=0;" parent="117" vertex="1">
                    <mxGeometry y="93" width="120" height="41" as="geometry"/>
                </mxCell>
                <mxCell id="123" value="+ nominal" style="shape=partialRectangle;html=1;whiteSpace=wrap;connectable=0;overflow=hidden;fillColor=#000000;top=0;left=0;bottom=0;right=0;pointerEvents=1;labelBackgroundColor=none;labelBorderColor=none;strokeColor=default;fontFamily=Times New Roman;fontSize=14;fontColor=#FFFFFF;" parent="122" vertex="1">
                    <mxGeometry width="120" height="41" as="geometry">
                        <mxRectangle width="120" height="41" as="alternateBounds"/>
                    </mxGeometry>
                </mxCell>
                <mxCell id="124" value="" style="shape=tableRow;horizontal=0;startSize=0;swimlaneHead=0;swimlaneBody=0;top=0;left=0;bottom=0;right=0;collapsible=0;dropTarget=0;fillColor=none;points=[[0,0.5],[1,0.5]];portConstraint=eastwest;labelBackgroundColor=none;labelBorderColor=none;strokeColor=default;fontFamily=Times New Roman;fontSize=14;fontColor=#FFFFFF;html=0;" parent="117" vertex="1">
                    <mxGeometry y="134" width="120" height="46" as="geometry"/>
                </mxCell>
                <mxCell id="125" value="+ info ()&amp;nbsp;" style="shape=partialRectangle;html=1;whiteSpace=wrap;connectable=0;overflow=hidden;fillColor=#2E732E;top=0;left=0;bottom=0;right=0;pointerEvents=1;labelBackgroundColor=none;labelBorderColor=none;strokeColor=default;fontFamily=Times New Roman;fontSize=14;fontColor=#FFFFFF;" parent="124" vertex="1">
                    <mxGeometry width="120" height="46" as="geometry">
                        <mxRectangle width="120" height="46" as="alternateBounds"/>
                    </mxGeometry>
                </mxCell>
                <mxCell id="126" value="" style="shape=table;startSize=0;container=1;collapsible=0;childLayout=tableLayout;labelBackgroundColor=none;labelBorderColor=none;strokeColor=default;fontFamily=Times New Roman;fontSize=14;fontColor=#FFFFFF;fillColor=#660066;html=0;" parent="1" vertex="1">
                    <mxGeometry x="2099" y="130" width="110" height="130" as="geometry"/>
                </mxCell>
                <mxCell id="127" value="" style="shape=tableRow;horizontal=0;startSize=0;swimlaneHead=0;swimlaneBody=0;top=0;left=0;bottom=0;right=0;collapsible=0;dropTarget=0;fillColor=none;points=[[0,0.5],[1,0.5]];portConstraint=eastwest;labelBackgroundColor=none;labelBorderColor=none;strokeColor=default;fontFamily=Times New Roman;fontSize=14;fontColor=#FFFFFF;html=0;" parent="126" vertex="1">
                    <mxGeometry width="110" height="45" as="geometry"/>
                </mxCell>
                <mxCell id="128" value="TopUpPulsa" style="shape=partialRectangle;html=1;whiteSpace=wrap;connectable=0;overflow=hidden;fillColor=none;top=0;left=0;bottom=0;right=0;pointerEvents=1;labelBackgroundColor=none;labelBorderColor=none;strokeColor=default;fontFamily=Times New Roman;fontSize=14;fontColor=#FFFFFF;" parent="127" vertex="1">
                    <mxGeometry width="110" height="45" as="geometry">
                        <mxRectangle width="110" height="45" as="alternateBounds"/>
                    </mxGeometry>
                </mxCell>
                <mxCell id="129" value="" style="shape=tableRow;horizontal=0;startSize=0;swimlaneHead=0;swimlaneBody=0;top=0;left=0;bottom=0;right=0;collapsible=0;dropTarget=0;fillColor=none;points=[[0,0.5],[1,0.5]];portConstraint=eastwest;labelBackgroundColor=none;labelBorderColor=none;strokeColor=default;fontFamily=Times New Roman;fontSize=14;fontColor=#FFFFFF;html=0;" parent="126" vertex="1">
                    <mxGeometry y="45" width="110" height="45" as="geometry"/>
                </mxCell>
                <mxCell id="130" value="- nomer : int" style="shape=partialRectangle;html=1;whiteSpace=wrap;connectable=0;overflow=hidden;fillColor=#000000;top=0;left=0;bottom=0;right=0;pointerEvents=1;labelBackgroundColor=none;labelBorderColor=none;strokeColor=default;fontFamily=Times New Roman;fontSize=14;fontColor=#FFFFFF;" parent="129" vertex="1">
                    <mxGeometry width="110" height="45" as="geometry">
                        <mxRectangle width="110" height="45" as="alternateBounds"/>
                    </mxGeometry>
                </mxCell>
                <mxCell id="131" value="" style="shape=tableRow;horizontal=0;startSize=0;swimlaneHead=0;swimlaneBody=0;top=0;left=0;bottom=0;right=0;collapsible=0;dropTarget=0;fillColor=none;points=[[0,0.5],[1,0.5]];portConstraint=eastwest;labelBackgroundColor=none;labelBorderColor=none;strokeColor=default;fontFamily=Times New Roman;fontSize=14;fontColor=#FFFFFF;html=0;" parent="126" vertex="1">
                    <mxGeometry y="90" width="110" height="40" as="geometry"/>
                </mxCell>
                <mxCell id="132" value="+ info ()&amp;nbsp;" style="shape=partialRectangle;html=1;whiteSpace=wrap;connectable=0;overflow=hidden;fillColor=#2E732E;top=0;left=0;bottom=0;right=0;pointerEvents=1;labelBackgroundColor=none;labelBorderColor=none;strokeColor=default;fontFamily=Times New Roman;fontSize=14;fontColor=#FFFFFF;" parent="131" vertex="1">
                    <mxGeometry width="110" height="40" as="geometry">
                        <mxRectangle width="110" height="40" as="alternateBounds"/>
                    </mxGeometry>
                </mxCell>
                <mxCell id="135" value="" style="shape=table;startSize=0;container=1;collapsible=0;childLayout=tableLayout;labelBackgroundColor=none;labelBorderColor=none;strokeColor=default;fontFamily=Times New Roman;fontSize=14;fontColor=#FFFFFF;fillColor=#660066;html=0;" parent="1" vertex="1">
                    <mxGeometry x="1969" y="130" width="110" height="130" as="geometry"/>
                </mxCell>
                <mxCell id="136" value="" style="shape=tableRow;horizontal=0;startSize=0;swimlaneHead=0;swimlaneBody=0;top=0;left=0;bottom=0;right=0;collapsible=0;dropTarget=0;fillColor=none;points=[[0,0.5],[1,0.5]];portConstraint=eastwest;labelBackgroundColor=none;labelBorderColor=none;strokeColor=default;fontFamily=Times New Roman;fontSize=14;fontColor=#FFFFFF;html=0;" parent="135" vertex="1">
                    <mxGeometry width="110" height="45" as="geometry"/>
                </mxCell>
                <mxCell id="137" value="TopUpListrik" style="shape=partialRectangle;html=1;whiteSpace=wrap;connectable=0;overflow=hidden;fillColor=none;top=0;left=0;bottom=0;right=0;pointerEvents=1;labelBackgroundColor=none;labelBorderColor=none;strokeColor=default;fontFamily=Times New Roman;fontSize=14;fontColor=#FFFFFF;" parent="136" vertex="1">
                    <mxGeometry width="110" height="45" as="geometry">
                        <mxRectangle width="110" height="45" as="alternateBounds"/>
                    </mxGeometry>
                </mxCell>
                <mxCell id="138" value="" style="shape=tableRow;horizontal=0;startSize=0;swimlaneHead=0;swimlaneBody=0;top=0;left=0;bottom=0;right=0;collapsible=0;dropTarget=0;fillColor=none;points=[[0,0.5],[1,0.5]];portConstraint=eastwest;labelBackgroundColor=none;labelBorderColor=none;strokeColor=default;fontFamily=Times New Roman;fontSize=14;fontColor=#FFFFFF;html=0;" parent="135" vertex="1">
                    <mxGeometry y="45" width="110" height="45" as="geometry"/>
                </mxCell>
                <mxCell id="139" value="- meteran : str" style="shape=partialRectangle;html=1;whiteSpace=wrap;connectable=0;overflow=hidden;fillColor=#000000;top=0;left=0;bottom=0;right=0;pointerEvents=1;labelBackgroundColor=none;labelBorderColor=none;strokeColor=default;fontFamily=Times New Roman;fontSize=14;fontColor=#FFFFFF;" parent="138" vertex="1">
                    <mxGeometry width="110" height="45" as="geometry">
                        <mxRectangle width="110" height="45" as="alternateBounds"/>
                    </mxGeometry>
                </mxCell>
                <mxCell id="140" value="" style="shape=tableRow;horizontal=0;startSize=0;swimlaneHead=0;swimlaneBody=0;top=0;left=0;bottom=0;right=0;collapsible=0;dropTarget=0;fillColor=none;points=[[0,0.5],[1,0.5]];portConstraint=eastwest;labelBackgroundColor=none;labelBorderColor=none;strokeColor=default;fontFamily=Times New Roman;fontSize=14;fontColor=#FFFFFF;html=0;" parent="135" vertex="1">
                    <mxGeometry y="90" width="110" height="40" as="geometry"/>
                </mxCell>
                <mxCell id="141" value="+ info ()" style="shape=partialRectangle;html=1;whiteSpace=wrap;connectable=0;overflow=hidden;fillColor=#2E732E;top=0;left=0;bottom=0;right=0;pointerEvents=1;labelBackgroundColor=none;labelBorderColor=none;strokeColor=default;fontFamily=Times New Roman;fontSize=14;fontColor=#FFFFFF;" parent="140" vertex="1">
                    <mxGeometry width="110" height="40" as="geometry">
                        <mxRectangle width="110" height="40" as="alternateBounds"/>
                    </mxGeometry>
                </mxCell>
                <mxCell id="156" value="" style="shape=curlyBracket;whiteSpace=wrap;html=1;rounded=1;flipH=1;labelPosition=right;verticalLabelPosition=middle;align=left;verticalAlign=middle;shadow=1;labelBackgroundColor=none;labelBorderColor=none;strokeColor=default;strokeWidth=1;fontFamily=Times New Roman;fontSize=14;fontColor=#FFFFFF;fillColor=#2E732E;" parent="1" vertex="1">
                    <mxGeometry x="1979" y="-20" height="90" as="geometry"/>
                </mxCell>
                <mxCell id="172" style="edgeStyle=elbowEdgeStyle;sketch=1;elbow=vertical;html=1;fontFamily=Times New Roman;fontSize=14;fontColor=#FFFFFF;" parent="1" source="169" edge="1">
                    <mxGeometry relative="1" as="geometry">
                        <mxPoint x="2039" y="10" as="targetPoint"/>
                    </mxGeometry>
                </mxCell>
                <mxCell id="169" value="__init__()" style="whiteSpace=wrap;html=1;shadow=1;labelBackgroundColor=none;labelBorderColor=none;strokeColor=default;strokeWidth=1;fontFamily=Times New Roman;fontSize=14;fontColor=#FFFFFF;fillColor=#2E732E;" parent="1" vertex="1">
                    <mxGeometry x="1919" y="-60" width="80" height="30" as="geometry"/>
                </mxCell>
            </root>
        </mxGraphModel>
    </diagram>
</mxfile>